<svg viewBox="0 0 1024 1067.908" xmlns="http://www.w3.org/2000/svg"><path d="M512 21.333c282.77 0 512 229.23 512 512s-229.23 512-512 512-512-229.23-512-512 229.23-512 512-512zm0 935.11c233.678 0 423.11-189.432 423.11-423.11S745.68 110.223 512 110.223c-233.678 0-423.11 189.432-423.11 423.11.277 233.566 189.544 422.833 423.083 423.11H512zm0-807.554c71.43 0 129.333 57.904 129.333 129.332S583.428 407.555 512 407.555c-71.43 0-129.333-57.905-129.333-129.333.076-71.398 57.935-129.257 129.326-129.333H512zm0 169.776c22.337 0 40.444-18.108 40.444-40.444S534.336 237.778 512 237.778c-22.337 0-40.444 18.108-40.444 40.444.025 22.327 18.118 40.42 40.442 40.444H512zm0 340.445c71.43 0 129.333 57.906 129.333 129.334S583.428 917.777 512 917.777c-71.43 0-129.333-57.905-129.333-129.333.076-71.398 57.935-129.257 129.326-129.333H512zm0 169.78c22.337 0 40.444-18.11 40.444-40.445S534.336 748 512 748c-22.337 0-40.444 18.11-40.444 40.445.025 22.327 18.118 40.42 40.442 40.444H512zM256.89 404c71.428 0 129.332 57.905 129.332 129.333S328.317 662.666 256.89 662.666c-71.43 0-129.334-57.905-129.334-129.333.076-71.398 57.935-129.257 129.326-129.333h.007zm0 169.777c22.336 0 40.443-18.108 40.443-40.444s-18.108-40.444-40.444-40.444c-22.338 0-40.445 18.107-40.445 40.443.025 22.327 18.118 40.42 40.442 40.444h.002zM767.11 404c71.43 0 129.334 57.905 129.334 129.333S838.54 662.666 767.11 662.666 637.78 604.76 637.78 533.333c.076-71.398 57.935-129.257 129.326-129.333h.007zm0 169.777c22.338 0 40.445-18.108 40.445-40.444s-18.108-40.444-40.444-40.444c-22.336 0-40.443 18.107-40.443 40.443.025 22.327 18.118 40.42 40.442 40.444zm255.112 471.556H512v-88.89h510.222zM554.667 577.777h-84.89v-88.89h84.89z"/></svg>